# xmcd
#
# Track frame offsets:
#	150
#	19403
#	37387
#	53950
#	66720
#	72283
#	96213
#	120907
#	137098
#	150567
#	168189
#	183560
#
# Disc length: 2620 seconds
# Revision: 0
# Processed by: cddbd v1.5.2PL0 Copyright (c) Steve Scherf et al.
# Submitted via: dBpowerAMP V12.0
#
DISCID=af0a3a0c
DTITLE=Various Artist - World Full of Blues
DYEAR=2019
DGENRE=Bluegrass
TTITLE0=Rob Ickes and Trey Hensley - Born With the Blues
TTITLE1=Rob Ickes and Trey Hensley feat. Vince Gill - Brown-Eyed Woman
TTITLE2=Rob Ickes and Trey Hensley - I'm Here But I'm Lonely
TTITLE3=Rob Ickes and Trey Hensley - Thirty Days
TTITLE4=Rob Ickes and Trey Hensley - World Full of Blues (Intro)
TTITLE5=Rob Ickes and Trey Hensley feat. Taj Mahal - World Full of Blues
TTITLE6=Rob Ickes and Trey Hensley - The Fatal Shore
TTITLE7=Rob Ickes and Trey Hensley - Nobody Can Tell Me I Can't
TTITLE8=Rob Ickes and Trey Hensley - There's Always Something to Remind Me of You
TTITLE9=Rob Ickes and Trey Hensley - Suzanne
TTITLE10=Rob Ickes and Trey Hensley - Both Ends of My Rainbow
TTITLE11=Rob Ickes and Trey Hensley - Rugged Road
EXTD=
EXTT0=
EXTT1=
EXTT2=
EXTT3=
EXTT4=
EXTT5=
EXTT6=
EXTT7=
EXTT8=
EXTT9=
EXTT10=
EXTT11=
PLAYORDER=
